<svg width="221" height="221" viewBox="0 0 221 221" fill="none" xmlns="http://www.w3.org/2000/svg">
<path d="M110.98 0.00996677C110.952 0.00911494 110.923 0.00717175 110.894 0.00522587C110.856 0.00261602 110.817 0 110.779 0L110.577 0L110.161 0C109.911 0.00051766 109.661 0.014166 109.413 0.0408866C103.479 0.425427 97.8977 2.96479 93.7391 7.17183C89.5805 11.3788 87.1369 16.9573 86.8789 22.8372C86.621 28.7169 88.5657 34.484 92.3404 39.032C96.1152 43.58 101.453 46.5887 107.331 47.4809C107.929 47.646 108.546 47.7305 109.165 47.7322C117.224 47.7408 125.198 49.3428 132.622 52.4444C140.046 55.5459 146.768 60.0842 152.394 65.7929C163.974 77.3182 170.474 92.9105 170.474 109.163C170.474 125.416 163.974 141.009 152.394 152.534C146.772 158.25 140.05 162.792 132.625 165.894C125.199 168.997 117.221 170.594 109.161 170.594C101.101 170.594 93.1224 168.997 85.6969 165.894C78.2715 162.792 71.5493 158.25 65.9276 152.534C54.3324 141.019 47.8299 125.42 47.848 109.163C47.8208 107.832 48.0627 106.509 48.5594 105.27C49.0552 104.033 49.7968 102.905 50.738 101.954C51.6802 101.003 52.8047 100.247 54.0452 99.7315C55.2856 99.216 56.6187 98.9503 57.964 98.9503C59.3092 98.9503 60.6424 99.216 61.8828 99.7315C63.1232 100.247 64.2478 101.003 65.1899 101.954C66.1311 102.905 66.8727 104.033 67.3685 105.27C67.8653 106.509 68.1071 107.832 68.0799 109.163C68.0799 109.359 68.093 109.55 68.1091 109.742C68.093 109.933 68.0799 110.121 68.0799 110.32C68.0799 118.413 70.5013 126.325 75.0399 133.057C79.5784 139.789 86.0305 145.039 93.5809 148.147C101.131 151.254 109.444 152.079 117.467 150.517C125.491 148.955 132.867 145.075 138.666 139.369C144.464 133.662 148.425 126.384 150.048 118.452C151.671 110.521 150.884 102.29 147.786 94.8008C144.688 87.3112 139.418 80.8973 132.641 76.3685C125.864 71.8398 117.883 69.3989 109.706 69.354C108.792 69.3431 107.885 69.5118 107.037 69.8503C106.19 70.1888 105.419 70.6904 104.769 71.3261C104.119 71.9617 103.602 72.7187 103.25 73.5533C102.898 74.3877 102.716 75.2831 102.716 76.1875C102.716 77.0919 102.898 77.9873 103.25 78.8218C103.602 79.6564 104.119 80.4134 104.769 81.049C105.419 81.6846 106.19 82.1862 107.037 82.5248C107.885 82.8633 108.792 83.032 109.706 83.021C115.215 83.0212 120.602 84.6412 125.18 87.6756C129.758 90.7099 133.323 95.0218 135.421 100.065C137.519 105.107 138.057 110.652 136.965 115.997C135.873 121.342 133.202 126.246 129.29 130.086C125.377 133.926 120.401 136.529 114.991 137.566C109.582 138.602 103.982 138.025 98.9044 135.908C93.8268 133.79 89.4988 130.228 86.4708 125.672C83.4418 121.116 81.8486 115.773 81.894 110.32C81.894 110.125 81.8809 109.933 81.8648 109.742C81.8809 109.55 81.894 109.363 81.894 109.163C81.9232 106.036 81.3257 102.933 80.1366 100.035C78.9466 97.1372 77.1892 94.5012 74.9643 92.2794C72.7394 90.0574 70.0922 88.2937 67.175 87.0902C64.2579 85.8865 61.129 85.2669 57.968 85.2669C54.807 85.2669 51.6782 85.8865 48.761 87.0902C45.8438 88.2937 43.1967 90.0574 40.9717 92.2794C38.7468 94.5012 36.9894 97.1372 35.7994 100.035C34.6104 102.933 34.0128 106.036 34.042 109.163C34.0138 129.02 41.9512 148.075 56.1099 162.144C63.0164 169.145 71.2682 174.709 80.3785 178.507C89.4898 182.306 99.2772 184.262 109.163 184.262C119.05 184.262 128.837 182.306 137.948 178.507C147.059 174.709 155.311 169.145 162.217 162.144C176.354 148.06 184.288 129.015 184.288 109.163C184.288 89.3119 176.354 70.2663 162.217 56.1827C148.831 42.6264 130.667 34.7162 111.524 34.1061C111.277 34.0794 111.029 34.0657 110.78 34.0652C108.092 34.0129 105.532 32.9236 103.644 31.0297C101.757 29.1356 100.692 26.5869 100.677 23.9269C100.661 21.2669 101.696 18.7061 103.561 16.7906C105.426 14.875 107.973 13.7562 110.66 13.673C123.242 13.7487 135.684 16.2957 147.265 21.1659C158.845 26.0363 169.333 33.1331 178.121 42.045C196.305 60.1471 206.512 84.6349 206.512 110.161C206.512 135.685 196.305 160.173 178.121 178.275C169.281 187.256 158.714 194.394 147.042 199.269C135.37 204.142 122.83 206.653 110.161 206.653C97.4926 206.653 84.9523 204.142 73.2805 199.269C61.6077 194.394 51.0403 187.256 42.2011 178.275C23.9926 160.191 13.7809 135.693 13.8101 110.165C13.788 108.367 13.0513 106.649 11.7585 105.386C10.4657 104.121 8.72241 103.413 6.90459 103.413C5.08777 103.413 3.34451 104.121 2.05168 105.386C0.75885 106.649 0.0222626 108.367 9.15527e-05 110.165C-0.0402222 139.295 11.6064 167.251 32.3814 187.889C42.5054 198.156 54.5994 206.31 67.957 211.88C81.3156 217.45 95.6637 220.32 110.159 220.32C124.654 220.32 139.003 217.45 152.361 211.88C165.718 206.31 177.815 198.151 187.939 187.884C208.679 167.224 220.32 139.283 220.32 110.161C220.32 81.0368 208.679 53.0961 187.939 32.4358C177.908 22.2725 165.943 14.1749 152.735 8.60966C139.526 3.04443 125.335 0.121692 110.98 0.00996677Z" fill="black"/>
</svg>
