<svg width="372" height="70" viewBox="0 0 372 70" fill="none" xmlns="http://www.w3.org/2000/svg">
<path d="M36.0234 52.2568C36.0234 51.1143 35.8477 50.0889 35.4961 49.1807C35.1738 48.2432 34.5586 47.3936 33.6504 46.6318C32.7422 45.8408 31.4678 45.0645 29.8271 44.3027C28.1865 43.541 26.0625 42.75 23.4551 41.9297C20.5547 40.9922 17.8008 39.9375 15.1934 38.7656C12.6152 37.5938 10.3301 36.2314 8.33789 34.6787C6.375 33.0967 4.82227 31.2656 3.67969 29.1855C2.56641 27.1055 2.00977 24.6885 2.00977 21.9346C2.00977 19.2686 2.5957 16.8516 3.76758 14.6836C4.93945 12.4863 6.58008 10.6113 8.68945 9.05859C10.7988 7.47656 13.2891 6.26074 16.1602 5.41113C19.0605 4.56152 22.2393 4.13672 25.6963 4.13672C30.4131 4.13672 34.5293 4.98633 38.0449 6.68555C41.5605 8.38477 44.2852 10.7139 46.2188 13.6729C48.1816 16.6318 49.1631 20.0156 49.1631 23.8242H36.0674C36.0674 21.9492 35.6719 20.3086 34.8809 18.9023C34.1191 17.4668 32.9473 16.3389 31.3652 15.5186C29.8125 14.6982 27.8496 14.2881 25.4766 14.2881C23.1914 14.2881 21.2871 14.6396 19.7637 15.3428C18.2402 16.0166 17.0977 16.9395 16.3359 18.1113C15.5742 19.2539 15.1934 20.543 15.1934 21.9785C15.1934 23.0625 15.457 24.0439 15.9844 24.9229C16.541 25.8018 17.3613 26.6221 18.4453 27.3838C19.5293 28.1455 20.8623 28.8633 22.4443 29.5371C24.0264 30.2109 25.8574 30.8701 27.9375 31.5146C31.4238 32.5693 34.4854 33.7559 37.1221 35.0742C39.7881 36.3926 42.0146 37.8721 43.8018 39.5127C45.5889 41.1533 46.9365 43.0137 47.8447 45.0938C48.7529 47.1738 49.207 49.5322 49.207 52.1689C49.207 54.9521 48.665 57.4424 47.5811 59.6396C46.4971 61.8369 44.9297 63.6973 42.8789 65.2207C40.8281 66.7441 38.3818 67.9014 35.54 68.6924C32.6982 69.4834 29.5195 69.8789 26.0039 69.8789C22.8398 69.8789 19.7197 69.4688 16.6436 68.6484C13.5674 67.7988 10.7695 66.5244 8.25 64.8252C5.75977 63.126 3.76758 60.958 2.27344 58.3213C0.779297 55.6846 0.0322266 52.5645 0.0322266 48.9609H13.2598C13.2598 50.9531 13.5674 52.6377 14.1826 54.0146C14.7979 55.3916 15.6621 56.5049 16.7754 57.3545C17.918 58.2041 19.2656 58.8193 20.8184 59.2002C22.4004 59.5811 24.1289 59.7715 26.0039 59.7715C28.2891 59.7715 30.1641 59.4492 31.6289 58.8047C33.123 58.1602 34.2217 57.2666 34.9248 56.124C35.6572 54.9814 36.0234 53.6924 36.0234 52.2568ZM78.5449 58.2773V37.0957C78.5449 35.5723 78.2959 34.2686 77.7979 33.1846C77.2998 32.0713 76.5234 31.207 75.4688 30.5918C74.4434 29.9766 73.1104 29.6689 71.4697 29.6689C70.0635 29.6689 68.8477 29.918 67.8223 30.416C66.7969 30.8848 66.0059 31.5732 65.4492 32.4814C64.8926 33.3604 64.6143 34.4004 64.6143 35.6016H51.958C51.958 33.5801 52.4268 31.6611 53.3643 29.8447C54.3018 28.0283 55.6641 26.4316 57.4512 25.0547C59.2383 23.6484 61.3623 22.5498 63.8232 21.7588C66.3135 20.9678 69.0967 20.5723 72.1729 20.5723C75.8643 20.5723 79.1455 21.1875 82.0166 22.418C84.8877 23.6484 87.1436 25.4941 88.7842 27.9551C90.4541 30.416 91.2891 33.4922 91.2891 37.1836V57.5303C91.2891 60.1377 91.4502 62.2764 91.7725 63.9463C92.0947 65.5869 92.5635 67.0225 93.1787 68.2529V69H80.3906C79.7754 67.7109 79.3066 66.0996 78.9844 64.166C78.6914 62.2031 78.5449 60.2402 78.5449 58.2773ZM80.2148 40.04L80.3027 47.2031H73.2275C71.5576 47.2031 70.1074 47.3936 68.877 47.7744C67.6465 48.1553 66.6357 48.6973 65.8447 49.4004C65.0537 50.0742 64.4678 50.8652 64.0869 51.7734C63.7354 52.6816 63.5596 53.6777 63.5596 54.7617C63.5596 55.8457 63.8086 56.8271 64.3066 57.7061C64.8047 58.5557 65.5225 59.2295 66.46 59.7275C67.3975 60.1963 68.4961 60.4307 69.7559 60.4307C71.6602 60.4307 73.3154 60.0498 74.7217 59.2881C76.1279 58.5264 77.2119 57.5889 77.9736 56.4756C78.7646 55.3623 79.1748 54.3076 79.2041 53.3115L82.5439 58.6729C82.0752 59.874 81.4307 61.1191 80.6104 62.4082C79.8193 63.6973 78.8086 64.9131 77.5781 66.0557C76.3477 67.1689 74.8682 68.0918 73.1396 68.8242C71.4111 69.5273 69.3604 69.8789 66.9873 69.8789C63.9697 69.8789 61.2305 69.2783 58.7695 68.0771C56.3379 66.8467 54.4043 65.1621 52.9688 63.0234C51.5625 60.8555 50.8594 58.3945 50.8594 55.6406C50.8594 53.1504 51.3281 50.9385 52.2656 49.0049C53.2031 47.0713 54.5801 45.4453 56.3965 44.127C58.2422 42.7793 60.542 41.7686 63.2959 41.0947C66.0498 40.3916 69.2432 40.04 72.876 40.04H80.2148ZM112.673 69H99.9287V17.2324C99.9287 13.6289 100.632 10.5967 102.038 8.13574C103.474 5.64551 105.48 3.77051 108.059 2.51074C110.666 1.22168 113.757 0.577148 117.331 0.577148C118.503 0.577148 119.631 0.665039 120.715 0.84082C121.799 0.987305 122.854 1.17773 123.879 1.41211L123.747 10.9482C123.19 10.8018 122.604 10.6992 121.989 10.6406C121.374 10.582 120.656 10.5527 119.836 10.5527C118.312 10.5527 117.009 10.8164 115.925 11.3438C114.87 11.8418 114.064 12.5889 113.508 13.585C112.951 14.5811 112.673 15.7969 112.673 17.2324V69ZM122.165 21.4512V30.416H92.8535V21.4512H122.165ZM145.131 69.8789C141.439 69.8789 138.129 69.293 135.199 68.1211C132.27 66.9199 129.779 65.2646 127.729 63.1553C125.707 61.0459 124.154 58.5996 123.07 55.8164C121.986 53.0039 121.444 50.0156 121.444 46.8516V45.0938C121.444 41.4902 121.957 38.1943 122.982 35.2061C124.008 32.2178 125.473 29.625 127.377 27.4277C129.311 25.2305 131.654 23.5459 134.408 22.374C137.162 21.1729 140.268 20.5723 143.725 20.5723C147.094 20.5723 150.082 21.1289 152.689 22.2422C155.297 23.3555 157.479 24.9375 159.237 26.9883C161.024 29.0391 162.372 31.5 163.28 34.3711C164.188 37.2129 164.643 40.377 164.643 43.8633V49.1367H126.85V40.6992H152.206V39.7324C152.206 37.9746 151.884 36.4072 151.239 35.0303C150.624 33.624 149.687 32.5107 148.427 31.6904C147.167 30.8701 145.556 30.46 143.593 30.46C141.923 30.46 140.487 30.8262 139.286 31.5586C138.085 32.291 137.104 33.3164 136.342 34.6348C135.609 35.9531 135.053 37.5059 134.672 39.293C134.32 41.0508 134.145 42.9844 134.145 45.0938V46.8516C134.145 48.7559 134.408 50.5137 134.936 52.125C135.492 53.7363 136.269 55.1279 137.265 56.2998C138.29 57.4717 139.521 58.3799 140.956 59.0244C142.421 59.6689 144.076 59.9912 145.922 59.9912C148.207 59.9912 150.331 59.5518 152.294 58.6729C154.286 57.7646 156 56.4023 157.436 54.5859L163.588 61.2656C162.592 62.7012 161.229 64.0781 159.501 65.3965C157.802 66.7148 155.751 67.7988 153.349 68.6484C150.946 69.4688 148.207 69.8789 145.131 69.8789ZM205.23 47.7744H218.37C218.106 52.0811 216.92 55.9043 214.811 59.2441C212.73 62.584 209.815 65.1914 206.065 67.0664C202.345 68.9414 197.862 69.8789 192.618 69.8789C188.517 69.8789 184.84 69.1758 181.588 67.7695C178.336 66.334 175.553 64.2832 173.238 61.6172C170.953 58.9512 169.21 55.7285 168.009 51.9492C166.808 48.1699 166.207 43.9365 166.207 39.249V34.8105C166.207 30.123 166.822 25.8896 168.053 22.1104C169.312 18.3018 171.1 15.0645 173.414 12.3984C175.758 9.73242 178.556 7.68164 181.808 6.24609C185.06 4.81055 188.692 4.09277 192.706 4.09277C198.038 4.09277 202.535 5.05957 206.197 6.99316C209.889 8.92676 212.745 11.5928 214.767 14.9912C216.817 18.3896 218.048 22.2568 218.458 26.5928H205.274C205.128 24.0146 204.615 21.832 203.736 20.0449C202.857 18.2285 201.524 16.8662 199.737 15.958C197.979 15.0205 195.636 14.5518 192.706 14.5518C190.509 14.5518 188.59 14.9619 186.949 15.7822C185.309 16.6025 183.932 17.8477 182.818 19.5176C181.705 21.1875 180.87 23.2969 180.313 25.8457C179.786 28.3652 179.522 31.3242 179.522 34.7227V39.249C179.522 42.5596 179.771 45.4746 180.27 47.9941C180.768 50.4844 181.529 52.5938 182.555 54.3223C183.609 56.0215 184.957 57.3105 186.598 58.1895C188.268 59.0391 190.274 59.4639 192.618 59.4639C195.372 59.4639 197.643 59.0244 199.43 58.1455C201.217 57.2666 202.579 55.9629 203.517 54.2344C204.483 52.5059 205.055 50.3525 205.23 47.7744ZM235.096 21.4512V69H222.396V21.4512H235.096ZM221.604 9.05859C221.604 7.21289 222.249 5.68945 223.538 4.48828C224.827 3.28711 226.556 2.68652 228.724 2.68652C230.862 2.68652 232.576 3.28711 233.865 4.48828C235.184 5.68945 235.843 7.21289 235.843 9.05859C235.843 10.9043 235.184 12.4277 233.865 13.6289C232.576 14.8301 230.862 15.4307 228.724 15.4307C226.556 15.4307 224.827 14.8301 223.538 13.6289C222.249 12.4277 221.604 10.9043 221.604 9.05859ZM253.711 31.8223V69H241.055V21.4512H252.964L253.711 31.8223ZM268.037 21.1436L267.817 32.877C267.202 32.7891 266.455 32.7158 265.576 32.6572C264.727 32.5693 263.95 32.5254 263.247 32.5254C261.46 32.5254 259.907 32.7598 258.589 33.2285C257.3 33.668 256.216 34.3271 255.337 35.2061C254.487 36.085 253.843 37.1543 253.403 38.4141C252.993 39.6738 252.759 41.1094 252.7 42.7207L250.151 41.9297C250.151 38.8535 250.459 36.0264 251.074 33.4482C251.689 30.8408 252.583 28.5703 253.755 26.6367C254.956 24.7031 256.421 23.209 258.149 22.1543C259.878 21.0996 261.855 20.5723 264.082 20.5723C264.785 20.5723 265.503 20.6309 266.235 20.748C266.968 20.8359 267.568 20.9678 268.037 21.1436ZM288.278 59.9912C289.831 59.9912 291.208 59.6982 292.409 59.1123C293.61 58.4971 294.548 57.6475 295.222 56.5635C295.925 55.4502 296.291 54.1465 296.32 52.6523H308.229C308.2 55.9922 307.307 58.9658 305.549 61.5732C303.791 64.1514 301.433 66.1875 298.474 67.6816C295.515 69.1465 292.204 69.8789 288.542 69.8789C284.851 69.8789 281.628 69.2637 278.874 68.0332C276.149 66.8027 273.879 65.1035 272.062 62.9355C270.246 60.7383 268.884 58.1895 267.976 55.2891C267.067 52.3594 266.613 49.2246 266.613 45.8848V44.6104C266.613 41.2412 267.067 38.1064 267.976 35.2061C268.884 32.2764 270.246 29.7275 272.062 27.5596C273.879 25.3623 276.149 23.6484 278.874 22.418C281.599 21.1875 284.792 20.5723 288.454 20.5723C292.351 20.5723 295.764 21.3193 298.693 22.8135C301.652 24.3076 303.967 26.4463 305.637 29.2295C307.336 31.9834 308.2 35.25 308.229 39.0293H296.32C296.291 37.4473 295.954 36.0117 295.31 34.7227C294.694 33.4336 293.786 32.4082 292.585 31.6465C291.413 30.8555 289.963 30.46 288.234 30.46C286.389 30.46 284.88 30.8555 283.708 31.6465C282.536 32.4082 281.628 33.4629 280.983 34.8105C280.339 36.1289 279.885 37.6377 279.621 39.3369C279.387 41.0068 279.27 42.7646 279.27 44.6104V45.8848C279.27 47.7305 279.387 49.5029 279.621 51.2021C279.855 52.9014 280.295 54.4102 280.939 55.7285C281.613 57.0469 282.536 58.0869 283.708 58.8486C284.88 59.6104 286.403 59.9912 288.278 59.9912ZM324.428 1.5V69H311.728V1.5H324.428ZM352.271 69.8789C348.58 69.8789 345.27 69.293 342.34 68.1211C339.41 66.9199 336.92 65.2646 334.869 63.1553C332.848 61.0459 331.295 58.5996 330.211 55.8164C329.127 53.0039 328.585 50.0156 328.585 46.8516V45.0938C328.585 41.4902 329.098 38.1943 330.123 35.2061C331.148 32.2178 332.613 29.625 334.518 27.4277C336.451 25.2305 338.795 23.5459 341.549 22.374C344.303 21.1729 347.408 20.5723 350.865 20.5723C354.234 20.5723 357.223 21.1289 359.83 22.2422C362.438 23.3555 364.62 24.9375 366.378 26.9883C368.165 29.0391 369.513 31.5 370.421 34.3711C371.329 37.2129 371.783 40.377 371.783 43.8633V49.1367H333.99V40.6992H359.347V39.7324C359.347 37.9746 359.024 36.4072 358.38 35.0303C357.765 33.624 356.827 32.5107 355.567 31.6904C354.308 30.8701 352.696 30.46 350.733 30.46C349.063 30.46 347.628 30.8262 346.427 31.5586C345.226 32.291 344.244 33.3164 343.482 34.6348C342.75 35.9531 342.193 37.5059 341.812 39.293C341.461 41.0508 341.285 42.9844 341.285 45.0938V46.8516C341.285 48.7559 341.549 50.5137 342.076 52.125C342.633 53.7363 343.409 55.1279 344.405 56.2998C345.431 57.4717 346.661 58.3799 348.097 59.0244C349.562 59.6689 351.217 59.9912 353.062 59.9912C355.348 59.9912 357.472 59.5518 359.435 58.6729C361.427 57.7646 363.141 56.4023 364.576 54.5859L370.729 61.2656C369.732 62.7012 368.37 64.0781 366.642 65.3965C364.942 66.7148 362.892 67.7988 360.489 68.6484C358.087 69.4688 355.348 69.8789 352.271 69.8789Z" fill="white"/>
</svg>
